<svg xmlns="http://www.w3.org/2000/svg" width="64" height="64" viewBox="0 0 64 64" role="img" aria-label="Scraps2Snacks">
  <defs>
    <linearGradient id="bg" x1="10" y1="8" x2="54" y2="58" gradientUnits="userSpaceOnUse">
      <stop stop-color="#7a5ed3"/>
      <stop offset="1" stop-color="#10b981"/>
    </linearGradient>
  </defs>
  <rect width="64" height="64" rx="16" fill="url(#bg)"/>
  <path fill="#ffffff" fill-opacity="0.24" d="M18.5 16.5c8.8 1 15.1 8.1 15.4 16.6-8.4.4-15.9-5.4-17.4-14.1-.2-1.4.6-2.7 2-2.5Z"/>
  <path fill="#ffffff" d="M24 19.4c1.3-.7 2.8-.1 3.4 1.2l7.9 17.2c.6 1.3 0 2.8-1.2 3.4-1.3.6-2.8.1-3.4-1.2l-7.9-17.2c-.6-1.3-.1-2.8 1.2-3.4Z"/>
  <path fill="#ffffff" d="M43.9 17.7c1.3.5 1.9 2 1.4 3.3l-2.8 7.2 2.9 1.1 2.8-7.2c.5-1.3 2-1.9 3.3-1.4 1.3.5 1.9 2 1.4 3.3l-3 7.7c-1.3 3.2-4.6 4.9-7.8 4l-2.9 7.4c-.5 1.3-2 1.9-3.3 1.4-1.3-.5-1.9-2-1.4-3.3l8-22.1c.5-1.3 2-1.9 3.4-1.4Z"/>
  <path fill="#fbbf24" d="M48.8 10.3 50.6 14l4 .6-2.9 2.8.7 4-3.6-1.9-3.5 1.9.7-4-2.9-2.8 4-.6 1.7-3.7Z"/>
</svg>
