<svg xmlns="http://www.w3.org/2000/svg" width="64" height="64" viewBox="0 0 64 64" fill="none" role="img" aria-label="Scraps2Snacks">
  <defs>
    <linearGradient id="bg" x1="10" y1="8" x2="55" y2="58" gradientUnits="userSpaceOnUse">
      <stop stop-color="#7a5ed3"/>
      <stop offset="1" stop-color="#10b981"/>
    </linearGradient>
    <linearGradient id="leaf" x1="26" y1="14" x2="44" y2="34" gradientUnits="userSpaceOnUse">
      <stop stop-color="#d9f99d"/>
      <stop offset="1" stop-color="#ffffff"/>
    </linearGradient>
  </defs>
  <rect width="64" height="64" rx="16" fill="url(#bg)"/>
  <path d="M18 34.5h28c0 8.1-6.1 14.5-14 14.5s-14-6.4-14-14.5Z" fill="#ffffff"/>
  <path d="M16 33.5c0-2.2 1.8-4 4-4h24c2.2 0 4 1.8 4 4v1H16v-1Z" fill="#f5f3ff"/>
  <path d="M23 38.8c2 3 5.3 4.7 9 4.7 3.8 0 7.1-1.7 9.1-4.7" stroke="#7a5ed3" stroke-width="2.5" stroke-linecap="round" opacity="0.28"/>
  <path d="M32 29.5c-1.1-8 3.4-14.3 11.4-16.5 1.1 7.6-3.4 14.8-11.4 16.5Z" fill="url(#leaf)"/>
  <path d="M32.1 29.1c1.8-4.7 5.2-8.6 10.3-11.5" stroke="#10b981" stroke-width="2" stroke-linecap="round" opacity="0.75"/>
  <path d="M21.5 20.5c3.7.4 6.9 3.5 7.5 7.4-4.1.2-7.4-2.8-7.5-7.4Z" fill="#ffffff" opacity="0.72"/>
  <path d="m48.5 12.5 1.4 3 3.1.5-2.3 2.2.6 3.1-2.8-1.5-2.8 1.5.5-3.1-2.2-2.2 3.1-.5 1.4-3Z" fill="#fbbf24"/>
</svg>
