<svg xmlns="http://www.w3.org/2000/svg" width="420" height="112" viewBox="0 0 420 112" fill="none" role="img" aria-label="Scraps2Snacks logo">
  <defs>
    <linearGradient id="logo-bg" x1="14" y1="14" x2="90" y2="92" gradientUnits="userSpaceOnUse">
      <stop stop-color="#20291d"/>
      <stop offset="1" stop-color="#10130f"/>
    </linearGradient>
    <linearGradient id="logo-leaf" x1="33" y1="31" x2="70" y2="66" gradientUnits="userSpaceOnUse">
      <stop stop-color="#35c184"/>
      <stop offset="1" stop-color="#3d9b63"/>
    </linearGradient>
    <linearGradient id="logo-warm" x1="70" y1="25" x2="87" y2="46" gradientUnits="userSpaceOnUse">
      <stop stop-color="#f2b544"/>
      <stop offset="1" stop-color="#e4572e"/>
    </linearGradient>
  </defs>

  <rect width="420" height="112" rx="18" fill="#10130f"/>
  <rect x="1" y="1" width="418" height="110" rx="17" stroke="#f7f8f2" stroke-opacity="0.08" stroke-width="2"/>

  <g>
    <rect x="8" y="8" width="96" height="96" rx="16" fill="url(#logo-bg)"/>
    <rect x="9.25" y="9.25" width="93.5" height="93.5" rx="14.75" stroke="#f7f8f2" stroke-opacity="0.14" stroke-width="2.5"/>
    <path d="M30 61h52c-1.6 16.1-12.7 27-26 27S31.6 77.1 30 61Z" fill="#f7f8f2"/>
    <path d="M28 59c0-4.1 3.4-7.5 7.5-7.5h41c4.1 0 7.5 3.4 7.5 7.5v2.6H28V59Z" fill="#ffffff"/>
    <path d="M43 69c3.4 4 7.7 6 13 6s9.6-2 13-6" stroke="#3d9b63" stroke-width="4" stroke-linecap="round" opacity="0.36"/>
    <path d="M53.5 52.4c-5.3-10.8-1.6-22 9.7-29.2 5.9 11.5 2.2 23.4-9.7 29.2Z" fill="url(#logo-leaf)"/>
    <path d="M54.5 50.8c1.9-7 4.8-12.9 8.8-17.4" stroke="#eaffdf" stroke-width="3.2" stroke-linecap="round" opacity="0.64"/>
    <path d="M39.5 45.2c5.8-.2 10.7 3.7 12.4 9.7-6.8 1.1-12-3.2-12.4-9.7Z" fill="#3d9b63"/>
    <path d="M33 49c-.5-8.7 5.2-14.8 14.6-15.9" stroke="#f2b544" stroke-width="4.5" stroke-linecap="round" stroke-dasharray="0.1 9"/>
    <path d="m80.5 25.2 2.6 5.4 5.9.9-4.3 4.2 1 5.9-5.2-2.8-5.2 2.8 1-5.9-4.3-4.2 5.9-.9 2.6-5.4Z" fill="url(#logo-warm)"/>
  </g>

  <g>
    <text x="126" y="53" fill="#f7f8f2" font-family="Outfit, Inter, Arial, sans-serif" font-size="36" font-weight="800">Scraps</text>
    <text x="244" y="53" fill="#e4572e" font-family="Outfit, Inter, Arial, sans-serif" font-size="36" font-weight="900">2</text>
    <text x="269" y="53" fill="#f7f8f2" font-family="Outfit, Inter, Arial, sans-serif" font-size="36" font-weight="800">Snacks</text>
    <text x="128" y="78" fill="#aab5a5" font-family="Outfit, Inter, Arial, sans-serif" font-size="15" font-weight="600">pantry scraps into better meals</text>
    <path d="M128 88h190" stroke="#2b342c" stroke-width="2" stroke-linecap="round"/>
    <path d="M128 88h86" stroke="#3d9b63" stroke-width="2" stroke-linecap="round"/>
  </g>
</svg>
